<?xml version="1.0" encoding="utf-8"?>
<!-- Generator: Adobe Illustrator 20.1.0, SVG Export Plug-In . SVG Version: 6.00 Build 0)  -->
<svg version="1.1" id="圖層_1" xmlns="http://www.w3.org/2000/svg" xmlns:xlink="http://www.w3.org/1999/xlink" x="0px" y="0px"
	 viewBox="0 0 50 50" style="enable-background:new 0 0 50 50;" xml:space="preserve">
<style type="text/css">
	.st0{fill:#C24D4C;}
	.st1{fill:#F4F4F5;}
	.st2{fill:#FAFAFB;}
</style>
<g>
	<g>
		<circle class="st0" cx="24.8" cy="24.9" r="22.9"/>
		<path class="st1" d="M24.8,48.2c-12.8,0-23.3-10.5-23.3-23.3S11.9,1.6,24.8,1.6c12.8,0,23.3,10.5,23.3,23.3S37.6,48.2,24.8,48.2z
			 M24.8,2.5C12.4,2.5,2.4,12.5,2.4,24.9s10.1,22.4,22.4,22.4c12.4,0,22.4-10.1,22.4-22.4S37.2,2.5,24.8,2.5z"/>
	</g>
	<path class="st2" d="M23.8,30c-0.2,0-0.4-0.1-0.5-0.2l-8.5-9.3c-0.2-0.3-0.2-0.7,0-0.9c0.3-0.2,0.7-0.2,0.9,0l8.5,9.3
		c0.2,0.3,0.2,0.7,0,0.9C24.1,30,24,30,23.8,30z"/>
	<path class="st2" d="M23.8,30c-0.2,0-0.4-0.1-0.5-0.2c-0.2-0.3-0.2-0.7,0.1-0.9l13.3-10.8c0.3-0.2,0.7-0.2,0.9,0.1
		c0.2,0.3,0.2,0.7-0.1,0.9L24.2,29.9C24.1,30,23.9,30,23.8,30z"/>
</g>
</svg>
