<?xml version="1.0" encoding="utf-8"?>
<!-- Generator: Adobe Illustrator 20.1.0, SVG Export Plug-In . SVG Version: 6.00 Build 0)  -->
<svg version="1.1" id="圖層_1" xmlns="http://www.w3.org/2000/svg" xmlns:xlink="http://www.w3.org/1999/xlink" x="0px" y="0px"
	 viewBox="0 0 50 50" style="enable-background:new 0 0 50 50;" xml:space="preserve">
<style type="text/css">
	.st0{fill:#C24D4C;}
	.st1{fill:#F4F4F5;}
	.st2{fill:#FDFEFE;}
	.st3{fill:#FAFAFB;}
</style>
<g>
	<g>
		<g>
			<circle class="st0" cx="24.6" cy="25" r="23"/>
			<path class="st1" d="M24.6,48.4C11.6,48.4,1.1,37.9,1.1,25c0-12.9,10.5-23.4,23.4-23.4S48,12.1,48,25
				C48,37.9,37.5,48.4,24.6,48.4z M24.6,2.4C12.1,2.4,2,12.6,2,25s10.1,22.5,22.5,22.5C37,47.5,47.1,37.4,47.1,25S37,2.4,24.6,2.4z"
				/>
		</g>
	</g>
	<g>
		<rect x="24.6" y="32.1" class="st2" width="1.8" height="5.4"/>
		<g>
			<path class="st3" d="M33.7,27.2c0-1.7-0.7-3.2-1.9-4.2c0.1-0.4,0.2-0.7,0.2-1.1c0-2.1-1.5-3.8-3.5-4.1c-0.2-2.1-2-3.8-4.1-3.8
				c-2.3,0-4.2,1.9-4.2,4.2c0,0.9,0.3,1.7,0.7,2.4c-0.4,0.3-0.7,0.8-0.7,1.4c0,0.1,0,0.2,0,0.2c-1.6,0.6-2.7,2.1-2.7,3.9
				c0,1.4,0.7,2.6,1.7,3.4c-0.1,0.2-0.1,0.3-0.2,0.5c-0.4,1.6,0.6,3.2,2.2,3.6c0.7,0.2,1.5,0.1,2.1-0.3c0.4,0.6,1,1,1.7,1.2
				c1.3,0.3,2.7-0.3,3.3-1.5C31.4,32.7,33.7,30.2,33.7,27.2z"/>
			<path class="st0" d="M25.8,34.8c-0.2,0-0.5,0-0.8-0.1c-0.7-0.2-1.3-0.5-1.8-1.1c-0.6,0.3-1.4,0.3-2.1,0.2c-1.8-0.4-2.9-2.2-2.5-4
				c0-0.1,0.1-0.2,0.1-0.3c-1-0.8-1.7-2.1-1.7-3.5c0-1.8,1.1-3.4,2.7-4.1c0,0,0,0,0,0c0-0.6,0.2-1.1,0.6-1.5
				c-0.4-0.7-0.6-1.5-0.6-2.3c0-2.5,2-4.5,4.5-4.5c2.2,0,4.1,1.7,4.4,3.9c2,0.4,3.6,2.3,3.6,4.4c0,0.3,0,0.7-0.1,1
				c1.2,1.1,1.8,2.7,1.8,4.3c0,3.1-2.4,5.7-5.4,6C28,34.2,26.9,34.8,25.8,34.8z M23.4,32.8l0.2,0.2c0.4,0.5,0.9,0.9,1.6,1
				c1.2,0.3,2.4-0.3,2.9-1.3l0.1-0.2l0.2,0c2.8-0.2,5-2.6,5-5.4c0-1.5-0.6-3-1.7-4l-0.2-0.1l0.1-0.2c0.1-0.3,0.1-0.7,0.1-1
				c0-1.9-1.4-3.5-3.2-3.8l-0.3,0l0-0.3c-0.2-2-1.8-3.5-3.8-3.5c-2.1,0-3.8,1.7-3.8,3.8c0,0.8,0.2,1.5,0.7,2.2l0.2,0.3l-0.3,0.2
				c-0.4,0.3-0.6,0.7-0.6,1.2c0,0.1,0,0.1,0,0.2l0,0.3l-0.3,0.1c-1.5,0.5-2.5,2-2.5,3.6c0,1.2,0.6,2.4,1.6,3.1l0.2,0.2l-0.1,0.2
				c-0.1,0.1-0.1,0.3-0.1,0.4c-0.3,1.4,0.6,2.9,2,3.2c0.6,0.1,1.3,0.1,1.8-0.2L23.4,32.8z"/>
		</g>
	</g>
</g>
</svg>
