<?xml version="1.0" encoding="utf-8"?>
<!-- Generator: Adobe Illustrator 20.1.0, SVG Export Plug-In . SVG Version: 6.00 Build 0)  -->
<svg version="1.1" id="圖層_1" xmlns="http://www.w3.org/2000/svg" xmlns:xlink="http://www.w3.org/1999/xlink" x="0px" y="0px"
	 viewBox="0 0 50 50" style="enable-background:new 0 0 50 50;" xml:space="preserve">
<style type="text/css">
	.st0{fill:#C24D4C;}
	.st1{fill:#F4F4F5;}
	.st2{fill:#FAFAFB;}
</style>
<g>
	<g>
		<circle class="st0" cx="25.1" cy="24.9" r="23.3"/>
		<path class="st1" d="M25.1,48.6C12,48.6,1.3,37.9,1.3,24.9C1.3,11.8,12,1.1,25.1,1.1s23.7,10.7,23.7,23.7
			C48.8,37.9,38.2,48.6,25.1,48.6z M25.1,2C12.5,2,2.2,12.3,2.2,24.9s10.2,22.8,22.8,22.8c12.6,0,22.8-10.2,22.8-22.8S37.7,2,25.1,2
			z"/>
	</g>
	<path class="st2" d="M34.4,18.5L34.4,18.5c-2.5-2.5-6.4-2.6-9-0.4c-2.6-2.2-6.5-2.1-9,0.4l0,0c-2.5,2.5-2.6,6.4-0.4,9
		c0.1,0.1,0.2,0.3,0.4,0.4l9,9l9-9c0.1-0.1,0.3-0.3,0.4-0.4C37,24.9,36.9,21,34.4,18.5z"/>
</g>
</svg>
